<svg viewBox="0 0 32 32" fill="none" xmlns="http://www.w3.org/2000/svg">
  <circle cx="16" cy="16" r="16" fill="url(#scalar-gradient)"/>
  <path d="M8 12.5C8 10.567 9.567 9 11.5 9H16V14H11.5C9.567 14 8 12.433 8 10.5V12.5Z" fill="white"/>
  <path d="M16 9H20.5C22.433 9 24 10.567 24 12.5C24 14.433 22.433 16 20.5 16H16V9Z" fill="white"/>
  <path d="M8 19.5C8 17.567 9.567 16 11.5 16H16V23H11.5C9.567 23 8 21.433 8 19.5Z" fill="white"/>
  <path d="M16 16H20.5C22.433 16 24 17.567 24 19.5C24 21.433 22.433 23 20.5 23H16V16Z" fill="white"/>
  <defs>
    <linearGradient id="scalar-gradient" x1="0" y1="0" x2="32" y2="32" gradientUnits="userSpaceOnUse">
      <stop stop-color="#5865F2"/>
      <stop offset="1" stop-color="#8B5CF6"/>
    </linearGradient>
  </defs>
</svg>
